# xmcd CD database file
#
# Track frame offsets:
#	150
#	15547
#	28990
#	43526
#	55912
#	68602
#	83813
#	98835
#	112763
#	126910
#	142491
#	155296
#	167062
#	181283
#	195674
#	210341
#	226692
#	238946
#	255990
#	270477
#
# Disc length: 3770 seconds
#
# Revision: 0
# Processed by: cddbd v1.5.2PL0 Copyright (c) Steve Scherf et al.
# Submitted via: CDex 1.51
#
DISCID=080eb814
DTITLE=John Lee Hooker - Anybody Seen My Baby
DYEAR=2006
DGENRE=Blues
TTITLE0=Anybody Seen My Baby
TTITLE1=Dirty Groundhog Blues
TTITLE2=Four Women In My Life
TTITLE3=High Priced Woman
TTITLE4=Leave My Wife Alone
TTITLE5=Just Me And MyTelephone
TTITLE6=My Daddy Was A Jockey
TTITLE7=Louise Louise
TTITLE8=Dreamin' Blues
TTITLE9=Landing Blues
TTITLE10=Bumble Bee Blues
TTITLE11=Little Boy Blue
TTITLE12=Cat Fish
TTITLE13=Mean Old Train
TTITLE14=Graveyard Blues
TTITLE15=Low Down Midnite Boogie
TTITLE16=Mad Man Blues
TTITLE17=Goin' Mad Blues
TTITLE18=I Love The Boogie
TTITLE19=Morning Blues
EXTD=YEAR: 2006
EXTT0=
EXTT1=
EXTT2=
EXTT3=
EXTT4=
EXTT5=
EXTT6=
EXTT7=
EXTT8=
EXTT9=
EXTT10=
EXTT11=
EXTT12=
EXTT13=
EXTT14=
EXTT15=
EXTT16=
EXTT17=
EXTT18=
EXTT19=
PLAYORDER=
